<mxfile host="app.diagrams.net" modified="2021-08-04T07:17:34.271Z" agent="5.0 (Windows)" etag="FMk3lKvbmzd8oJoxeIn3" version="14.9.3" type="github">
  <diagram id="TASTO2IwIQPRZ3yuaC1y" name="Page-1">
    <mxGraphModel dx="1038" dy="508" grid="1" gridSize="10" guides="1" tooltips="1" connect="1" arrows="1" fold="1" page="1" pageScale="1" pageWidth="1169" pageHeight="827" math="0" shadow="0">
      <root>
        <mxCell id="0" />
        <mxCell id="1" parent="0" />
        <mxCell id="10CtPT5GMPp9_miOpkNc-1" value="y*_$8SWD" style="swimlane;" parent="1" vertex="1">
          <mxGeometry x="20" y="20" width="820" height="790" as="geometry" />
        </mxCell>
      </root>
    </mxGraphModel>
  </diagram>
</mxfile>
